<svg width="234" height="30" viewBox="0 0 234 30" fill="none" xmlns="http://www.w3.org/2000/svg">
<g clip-path="url(#clip0_217_454)">
<path d="M28.1681 29.1741L21.8215 18.7162C22.387 18.5604 22.9357 18.3483 23.4595 18.0831C24.7373 17.4573 25.7971 16.457 26.4997 15.2137C27.1889 13.9818 27.5341 12.5261 27.5353 10.8466C27.5353 8.90688 27.0793 7.24202 26.1672 5.85198C25.2182 4.43049 23.8624 3.33305 22.2795 2.70526C20.6073 1.98728 18.6381 1.6283 16.3718 1.6283H0V29.1741H10.5117V19.0089L16.1761 29.1741H28.1681ZM13.0504 14.9306H10.5117V9.30476H13.286C14.2994 9.30476 15.0677 9.54133 15.5909 10.0145C16.1141 10.4876 16.3744 11.1558 16.3718 12.0192C16.3718 12.9374 16.0919 13.6521 15.532 14.1635C14.9721 14.6749 14.1449 14.9306 13.0504 14.9306Z" fill="white"/>
<path d="M40.6739 21.2225V18.3512H51.4592V12.0578H40.6739V9.58058H52.2801V1.6344H40.6739H34.696H30.1641V29.1687H34.696H52.396V21.2225H40.6739Z" fill="white"/>
<path d="M74.3621 29.1741H85.2614L77.0185 1.6283H61.897L53.7319 29.1741H64.3976L65.38 25.2029H73.3512L74.3621 29.1741ZM67.0103 18.5881L69.3076 9.28946L71.6714 18.5881H67.0103Z" fill="white"/>
<path d="M105.637 29.3651C107.301 28.9675 108.905 28.346 110.405 27.5172V19.177C109.327 19.7635 108.186 20.2256 107.005 20.5543C105.747 20.9189 104.445 21.1043 103.136 21.1052C101.521 21.1052 100.121 20.8756 98.937 20.4165C97.854 20.0338 96.9039 19.3443 96.2008 18.431C95.5592 17.5433 95.2253 16.4678 95.2507 15.3703C95.2291 14.2846 95.5585 13.2212 96.1894 12.3403C96.8139 11.4731 97.719 10.8106 98.9047 10.3528C100.249 9.86748 101.67 9.63346 103.098 9.66223C104.394 9.66873 105.682 9.85409 106.927 10.2131C108.101 10.527 109.229 10.9898 110.287 11.5904V3.01682C108.806 2.28526 107.246 1.73119 105.637 1.36598C103.878 0.983615 102.083 0.798847 100.284 0.815069C96.8209 0.815069 93.8642 1.45717 91.4143 2.74136C88.9643 4.02555 87.1085 5.78287 85.8468 8.01331C84.58 10.2425 83.9466 12.7726 83.9466 15.6037C83.9127 18.171 84.5531 20.7017 85.8031 22.9397C87.0394 25.1306 88.8763 26.8522 91.3135 28.1045C93.7508 29.3568 96.6486 29.9861 100.007 29.9925C101.902 30.0089 103.792 29.7983 105.637 29.3651Z" fill="white"/>
<path d="M130.907 1.6344V11.1932H123.483V1.6344H112.973V29.1687H123.483V19.4129H130.907V29.1687H141.417V1.6344H130.907Z" fill="white"/>
<path d="M198.803 28.5245C200.802 27.627 202.494 26.1567 203.668 24.297C204.808 22.4606 205.378 20.2971 205.378 17.8065V1.64062H194.906V17.0203C194.906 18.1681 194.6 19.0722 193.988 19.7328C193.376 20.3934 192.562 20.7212 191.546 20.7161C190.945 20.7293 190.351 20.58 189.827 20.2837C189.326 19.9936 188.928 19.5537 188.687 19.0251C188.41 18.3944 188.276 17.7096 188.295 17.0203V1.64062H177.81V17.8065C177.81 20.2971 178.376 22.4606 179.509 24.297C180.668 26.1545 182.347 27.6254 184.335 28.5245C186.418 29.5077 188.825 29.9994 191.556 29.9994C194.287 29.9994 196.703 29.5077 198.803 28.5245Z" fill="#7049E6"/>
<path d="M207.789 1.6344V10.604H215.72V29.1687H226.23V10.604H234.005V1.6344H207.789Z" fill="#7049E6"/>
<path d="M173.768 6.96295C172.432 4.74148 170.484 2.95847 168.161 1.83064C165.74 0.610215 162.966 0 159.84 0C156.713 0 153.945 0.610215 151.536 1.83064C149.217 2.96685 147.276 4.75729 145.949 6.984C144.643 9.18128 143.986 11.6821 143.977 14.4864V26.4573C143.977 26.8137 144.046 27.1667 144.181 27.4961C144.316 27.8255 144.514 28.1249 144.764 28.3771C145.014 28.6294 145.311 28.8296 145.638 28.9662C145.965 29.1029 146.316 29.1734 146.67 29.1736H159.116C159.344 29.1736 159.568 29.1908 159.8 29.1908C160.032 29.1908 160.263 29.1794 160.495 29.1736H160.619C163.436 29.0754 165.951 28.4659 168.164 27.3449C170.486 26.2058 172.433 24.4173 173.772 22.1935C175.087 19.9898 175.744 17.4463 175.744 14.5629C175.742 11.6974 175.083 9.16406 173.768 6.96295ZM153.82 16.7398C153.396 16.7573 152.977 16.6469 152.617 16.4228C152.256 16.1986 151.97 15.871 151.796 15.482C151.622 15.0929 151.567 14.6603 151.639 14.2398C151.711 13.8193 151.906 13.43 152.2 13.1221C152.493 12.8143 152.872 12.6018 153.286 12.5121C153.7 12.4224 154.132 12.4596 154.525 12.6189C154.919 12.7781 155.256 13.0522 155.493 13.4058C155.73 13.7594 155.857 14.1763 155.857 14.6031C155.866 15.1576 155.656 15.6931 155.275 16.0933C154.894 16.4934 154.371 16.7257 153.82 16.7398ZM159.859 16.7398C159.435 16.757 159.016 16.6462 158.656 16.4218C158.295 16.1974 158.01 15.8696 157.836 15.4805C157.662 15.0915 157.608 14.6589 157.68 14.2385C157.752 13.8181 157.948 13.429 158.241 13.1213C158.535 12.8137 158.913 12.6014 159.327 12.5119C159.742 12.4224 160.173 12.4597 160.566 12.619C160.96 12.7783 161.296 13.0524 161.534 13.4059C161.771 13.7595 161.898 14.1764 161.898 14.6031C161.906 15.1579 161.697 15.6937 161.315 16.0939C160.933 16.4941 160.41 16.7262 159.859 16.7398ZM165.897 16.7398C165.474 16.757 165.055 16.6462 164.695 16.4218C164.334 16.1974 164.049 15.8696 163.875 15.4805C163.701 15.0915 163.646 14.6589 163.719 14.2385C163.791 13.8181 163.986 13.429 164.28 13.1213C164.573 12.8137 164.952 12.6014 165.366 12.5119C165.781 12.4224 166.212 12.4597 166.605 12.619C166.998 12.7783 167.335 13.0524 167.572 13.4059C167.81 13.7595 167.936 14.1764 167.936 14.6031C167.945 15.1579 167.736 15.6937 167.354 16.0939C166.972 16.4941 166.448 16.7262 165.897 16.7398Z" fill="#7049E6"/>
</g>
<defs>
<clipPath id="clip0_217_454">
<rect width="234" height="30" fill="white"/>
</clipPath>
</defs>
</svg>
